PathFileType	4	(X/Y/Z)	./motion_analysis/DM_ngait_tm_ss1_new.trc
DataRate	CameraRate	NumFrames	NumMarkers	Units	OrigDataRate	OrigDataStartFrame	OrigNumFrames
120	120	6	68	mm	120	786	2097
Frame#	Time	Sternum			Neck			R_Shoulder			L_Shoulder			Xiphoid			Thoracic			R_Asis			L_Asis			R_Psis			L_Psis			Lumbar			R_Elbow			R_ElbowMedial			R_ShoulderAnterior			R_ShoulderPosterior			R_Wrist			R_Radius			R_Ulna			L_Elbow			L_ElbowMedial			L_ShoulderAnterior			L_ShoulderPosterior			L_Wrist			L_Ulna			L_Radius			L_Thigh_Superior			L_Thigh_Inferior			L_Thigh_Lateral			L_Knee_Lateral			L_Knee_Medial			L_Patella			L_Shank_Superior			L_Shank_Inferior			L_Shank_Lateral			L_Ankle_Lateral			L_Ankle_Medial			R_Thigh_Superior			R_Thigh_Inferior			R_Thigh_Lateral			R_Knee_Lateral			R_Knee_Medial			R_Patella			R_Shank_Superior			R_Shank_Inferior			R_Shank_Lateral			R_Ankle_Lateral			RankleMedial			R_Heel			R_Toe			R_Midfoot_Medial			R_Midfoot_Lateral			R_Hindfoot			R_Midfoot_Superior			R_ToeMedial			R_ToeLateral			L_Heel			L_Toe			L_Midfoot_Medial			L_Midfoot_Lateral			L_Hindfoot			L_Midfoot_Superior			L_ToeMedial			L_ToeLateral			Oglobal			Sacral			Xglobal			Yglobal			Zglobal			
		X1	Y1	Z1	X2	Y2	Z2	X3	Y3	Z3	X4	Y4	Z4	X5	Y5	Z5	X6	Y6	Z6	X7	Y7	Z7	X8	Y8	Z8	X9	Y9	Z9	X10	Y10	Z10	X11	Y11	Z11	X12	Y12	Z12	X13	Y13	Z13	X14	Y14	Z14	X15	Y15	Z15	X16	Y16	Z16	X17	Y17	Z17	X18	Y18	Z18	X19	Y19	Z19	X20	Y20	Z20	X21	Y21	Z21	X22	Y22	Z22	X23	Y23	Z23	X24	Y24	Z24	X25	Y25	Z25	X26	Y26	Z26	X27	Y27	Z27	X28	Y28	Z28	X29	Y29	Z29	X30	Y30	Z30	X31	Y31	Z31	X32	Y32	Z32	X33	Y33	Z33	X34	Y34	Z34	X35	Y35	Z35	X36	Y36	Z36	X37	Y37	Z37	X38	Y38	Z38	X39	Y39	Z39	X40	Y40	Z40	X41	Y41	Z41	X42	Y42	Z42	X43	Y43	Z43	X44	Y44	Z44	X45	Y45	Z45	X46	Y46	Z46	X47	Y47	Z47	X48	Y48	Z48	X49	Y49	Z49	X50	Y50	Z50	X51	Y51	Z51	X52	Y52	Z52	X53	Y53	Z53	X54	Y54	Z54	X55	Y55	Z55	X56	Y56	Z56	X57	Y57	Z57	X58	Y58	Z58	X59	Y59	Z59	X60	Y60	Z60	X61	Y61	Z61	X62	Y62	Z62	X63	Y63	Z63	X64	Y64	Z64	X65	Y65	Z65	X66	Y66	Z66	X67	Y67	Z67	X68	Y68	Z68	

787	6.558333	-888.063	1344.07	463.263	-732.515	1429.9	456.751	-828.229	1371.89	292.708	-806.404	1385.16	632.753	-908.487	1180.51	468.068	-639.9930000000001	1243.58	469.692	-827.2859999999999	954.074	341.055	-823.5069999999999	959.068	618.996	-622.927	989.228	446.217	-624.662	988.4880000000001	524.566	-621.284	1038.92	481.633	-957.124	1079.54	226.317	-0	0	0	-0	0	0	-0	0	0	-1169.77	945.253	334.526	-1144.93	936.101	372.917	-1151.45	917.742	300.304	-924.662	1072.51	717.458	-0	0	0	-0	0	0	-0	0	0	-1134.04	912.097	663.177	-1097.2	892.532	692.048	-1111.55	921.107	622.795	-721.002	784.386	648.3680000000001	-668.564	568.14	606.115	-744.078	640.316	586.306	-0	0	0	-0	0	0	-661.112	457.225	552.674	-560.501	442.705	618.4829999999999	-375.664	242.333	625.439	-490.395	311.1	553.5119999999999	-0	0	0	-0	0	0	-783.6950000000001	774.999	313.281	-897.871	592.366	350.286	-944.774	682.9299999999999	394.539	-0	0	0	-0	0	0	-1002.8	543.425	420.27	-0	0	0	-981.6900000000001	198.714	342.518	-1010.53	335.205	414.175	-0	0	0	-0	0	0	-927.54	74.6082	394.709	-1224.29	81.72450000000001	389.72	-1151.45	56.4988	443.211	-1139.12	51.9609	326.679	-1028.02	43.3138	340.078	-1084	138.792	388.39	-1190.44	68.50620000000001	434.632	-1184.88	64.10850000000001	342.19	-239.848	168.581	573.228	-499.917	51.2138	601.374	-425.907	43.3549	543.766	-406.552	52.9578	656.1900000000001	-307.673	95.75449999999999	638.456	-410.46	146.728	592.277	-463.098	43.2837	553.7329999999999	-456.167	42.6385	651.468	-0	0	0	-623.794	988.8579999999999	485.392	-200	0	0	-0	0	200	-0	200	0	
788	6.566667	-889.357	1345.02	460.304	-733.626	1430.61	454.172	-829.197	1372.18	289.738	-808.231	1386.28	630.103	-909.896	1181.19	465.216	-640.8339999999999	1244.81	468.251	-828.027	955.696	339.256	-824.788	959.298	617.192	-623.824	990.127	444.965	-625.74	989.265	523.359	-622.272	1039.77	480.64	-957.985	1079.37	224.796	-0	0	0	-0	0	0	-0	0	0	-1169.48	945.5170000000001	335.093	-1144.65	936.223	373.312	-1151.52	917.992	300.764	-922.145	1071.32	714.856	-0	0	0	-0	0	0	-0	0	0	-1128.59	906.269	663.357	-1090.91	887.174	691.227	-1107.32	915.972	622.566	-724.115	783.463	646.1799999999999	-673.879	566.772	605.307	-748.538	639.9059999999999	585.524	-0	0	0	-0	0	0	-667.03	454.794	553.354	-565.076	441.953	618.259	-375.648	246.49	625.482	-492.124	312.115	553.75	-0	0	0	-0	0	0	-786.486	777.4299999999999	311.552	-900.6660000000001	594.663	348.795	-947.096	685.422	394.796	-0	0	0	-0	0	0	-1004.69	544.35	419.668	-0	0	0	-975.728	199.726	342.189	-1007.44	335.47	414.066	-0	0	0	-0	0	0	-917.623	74.8374	394.509	-1214.82	79.4937	389.804	-1141.39	54.7549	442.894	-1129.03	51.097	326.333	-1018.05	43.3531	339.739	-1075.06	138.114	388.611	-1180.84	66.581	434.894	-1175.24	62.74	341.964	-238.2	178.331	573.12	-490.79	49.7441	601.148	-417.621	43.7222	543.861	-398.865	54.5812	656.273	-302.184	102.331	638.478	-407.484	147.871	592.117	-453.415	42.9827	553.575	-446.995	42.2305	651.463	-0	0	0	-624.782	989.696	484.162	-200	0	0	-0	0	200	-0	200	0	
789	6.575	-890.58	1346.12	457.368	-734.801	1431.55	451.601	-830.522	1372.56	287.143	-810.236	1387.66	627.552	-911.692	1181.21	461.082	-641.856	1246.07	467.022	-828.603	957.5700000000001	337.497	-825.974	959.728	615.312	-624.538	991.08	443.771	-626.5599999999999	990.1130000000001	522.388	-623.064	1040.67	479.695	-958.9059999999999	1079.39	223.343	-0	0	0	-0	0	0	-0	0	0	-1169.2	945.977	335.797	-1144.22	936.509	373.922	-1151.65	918.431	301.308	-919.178	1070.34	712.232	-0	0	0	-0	0	0	-0	0	0	-1122.34	900.465	663.831	-1083.77	881.664	690.41	-1102.38	910.754	622.625	-727.374	782.603	643.801	-679.919	565.5940000000001	604.809	-753.4059999999999	639.814	584.633	-0	0	0	-0	0	0	-673.874	452.512	554.379	-570.621	441.347	618.3150000000001	-376.573	250.759	625.3819999999999	-494.798	313.333	554.1369999999999	-0	0	0	-0	0	0	-789.287	780.4400000000001	309.655	-903.027	596.843	347.101	-949.251	687.713	394.893	-0	0	0	-0	0	0	-1006	545.116	418.84	-0	0	0	-968.965	200.84	341.932	-1003.81	335.792	414.031	-0	0	0	-0	0	0	-907.551	74.9299	394.077	-1205.25	77.6683	389.72	-1131.16	53.4995	442.594	-1118.89	50.234	326.013	-1007.93	43.3252	339.474	-1065.83	137.565	388.471	-1171.15	64.9597	434.608	-1165.54	61.5225	341.726	-237.751	188.921	572.8440000000001	-482.251	48.1339	600.697	-409.325	44.3104	544.253	-391.294	56.8258	656.611	-297.191	109.734	638.696	-405.131	149.117	591.938	-444.292	42.5832	553.4349999999999	-438.228	42.0969	651.325	-0	0	0	-625.549	990.596	483.079	-200	0	0	-0	0	200	-0	200	0	
790	6.583333	-891.587	1347.33	454.609	-735.853	1432.7	449.112	-832.183	1372.84	285.265	-812.3	1389.24	625.011	-912.722	1182.23	458.472	-642.761	1247.34	466.032	-829.629	959.474	336.176	-827.103	960.332	613.389	-625.403	992.075	442.427	-627.309	991.03	521.3869999999999	-624.02	1041.6	478.528	-959.862	1079.56	221.856	-0	0	0	-0	0	0	-0	0	0	-1168.91	946.591	336.582	-1143.78	936.944	374.577	-1151.76	918.99	301.746	-915.885	1069.69	709.701	-0	0	0	-0	0	0	-0	0	0	-1115.24	894.595	664.528	-1075.68	876.129	689.616	-1096.79	905.4640000000001	622.807	-730.753	781.86	641.438	-686.5	564.529	604.367	-758.645	640.016	583.826	-0	0	0	-0	0	0	-681.336	450.516	555.658	-576.949	440.779	618.53	-377.957	255.577	625.679	-498.414	314.494	554.433	-0	0	0	-0	0	0	-791.871	783.453	307.562	-904.659	598.588	345.302	-951.073	689.946	393.703	-0	0	0	-0	0	0	-1006.81	545.476	418.379	-0	0	0	-961.921	201.957	341.721	-999.833	336.089	413.871	-0	0	0	-0	0	0	-897.669	75.13249999999999	393.862	-1195.65	76.2093	389.544	-1121.19	52.3954	442.203	-1108.85	49.5833	325.617	-997.982	43.3158	339.153	-1056.63	137.117	388.379	-1161.49	63.6235	434.504	-1155.9	60.4274	341.547	-238.483	200.581	572.236	-473.407	46.754	600.5	-400.716	45.4614	544.2	-383.451	59.4269	656.5069999999999	-293.386	117.789	638.515	-403.564	150.316	591.62	-434.993	42.2342	553.39	-429.642	42.398	651.2190000000001	-0	0	0	-626.356	991.553	481.907	-200	0	0	-0	0	200	-0	200	0	
791	6.591667	-892.516	1348.54	452.091	-736.789	1433.95	446.742	-833.504	1373.29	283.082	-814.218	1390.94	622.576	-913.5410000000001	1183.46	456.338	-643.579	1248.51	465.003	-830.787	961.644	334.994	-828.212	960.9930000000001	611.405	-626.275	993.128	441.025	-628.029	991.987	520.351	-624.987	1042.58	477.346	-960.741	1079.86	220.42	-0	0	0	-0	0	0	-0	0	0	-1168.7	947.299	337.349	-1142.9	937.072	374.688	-1151.98	919.78	302.224	-912.293	1069.36	707.297	-0	0	0	-0	0	0	-0	0	0	-1106.93	888.597	665.215	-1066.8	870.687	688.693	-1090.46	900.239	623.114	-734.08	781.222	638.875	-693.361	563.673	604.193	-764.131	640.498	583.373	-0	0	0	-0	0	0	-689.3440000000001	448.683	557.3819999999999	-583.798	440.278	618.838	-380.605	259.956	625.114	-502.867	315.704	554.841	-0	0	0	-0	0	0	-794.105	786.11	305.321	-905.365	599.725	343.818	-952.104	691.333	391.937	-0	0	0	-0	0	0	-1006.71	545.3579999999999	417.722	-0	0	0	-955.015	202.772	341.481	-995.5170000000001	336.036	413.61	-0	0	0	-0	0	0	-887.796	75.2692	393.592	-1185.95	75.0509	389.457	-1111.23	51.3804	441.792	-1098.84	49.0259	325.201	-988.1	43.356	338.813	-1047.39	136.71	388.267	-1151.75	62.5386	434.441	-1146.24	59.6086	341.342	-241.03	211.847	571.436	-464.636	45.8922	600.128	-393.464	46.9524	544.208	-376.95	62.3737	656.438	-290.275	126.371	637.928	-402.572	151.654	591.232	-425.596	42.1224	553.231	-421.11	43.3794	651.145	-0	0	0	-627.152	992.557	480.688	-200	0	0	-0	0	200	-0	200	0	
792	6.6	-893.17	1349.78	449.758	-737.4829999999999	1435.3	444.494	-834.746	1373.81	281.102	-815.753	1392.77	620.14	-914.191	1184.86	454.246	-644.342	1249.7	463.82	-831.933	963.8440000000001	333.973	-829.179	961.7910000000001	609.502	-627.107	994.2619999999999	439.698	-628.667	993.03	519.259	-625.876	1043.64	476.155	-961.716	1080.41	219.197	-0	0	0	-0	0	0	-0	0	0	-1168.6	948.162	338.024	-1142.18	937.701	374.711	-1152.23	920.598	302.66	-908.431	1069.44	704.866	-0	0	0	-0	0	0	-0	0	0	-1098.22	882.986	666.1130000000001	-1057.2	865.5309999999999	687.7430000000001	-1083.46	895.134	623.48	-737.374	780.809	636.722	-700.283	562.972	604.367	-769.78	641.092	583.082	-0	0	0	-0	0	0	-697.705	447.134	559.152	-591.013	439.856	619.21	-383.655	264.606	624.391	-507.896	316.943	555.327	-0	0	0	-0	0	0	-795.902	788.1559999999999	302.886	-905.018	600.217	342.643	-952.564	691.646	390.513	-0	0	0	-0	0	0	-1005.87	544.853	417.006	-0	0	0	-948.0119999999999	202.953	341.282	-990.878	335.571	413.488	-0	0	0	-0	0	0	-877.867	75.3747	393.348	-1176.21	74.2692	389.224	-1101.21	50.589	441.504	-1088.84	48.6477	324.904	-978.216	43.3602	338.48	-1037.95	136.41	388.233	-1142.03	61.6493	434.099	-1136.4	59.2314	340.888	-244.411	224.325	570.366	-456.36	45.0536	599.3630000000001	-385.189	49.1992	544.285	-370.191	66.78749999999999	656.409	-288.229	136.169	637.635	-401.964	153.309	590.294	-416.442	42.0556	553.128	-413.267	45.2745	650.986	-0	0	0	-627.8869999999999	993.646	479.478	-200	0	0	-0	0	200	-0	200	0	
